<svg id="Camada_1" data-name="Camada 1" xmlns="http://www.w3.org/2000/svg" xmlns:xlink="http://www.w3.org/1999/xlink" viewBox="0 0 961.28 235.56"><defs><style>.cls-1{fill:url(#linear-gradient);}.cls-2{fill:url(#linear-gradient-2);}.cls-3{fill:url(#linear-gradient-3);}.cls-4{fill:#00a820;}.cls-5{font-size:125px;fill:#069;font-family:FiraSans-ExtraBoldItalic, Fira Sans ExtraBold;font-weight:800;font-style:italic;}.cls-6{letter-spacing:-0.01em;}.cls-7{letter-spacing:0em;}</style><linearGradient id="linear-gradient" x1="97.6" y1="162.33" x2="244.06" y2="162.33" gradientUnits="userSpaceOnUse"><stop offset="0" stop-color="#4fbfa5"/><stop offset="0.02" stop-color="#49bd9b"/><stop offset="0.09" stop-color="#36b87a"/><stop offset="0.16" stop-color="#25b35e"/><stop offset="0.25" stop-color="#17af47"/><stop offset="0.34" stop-color="#0dac36"/><stop offset="0.46" stop-color="#05aa29"/><stop offset="0.62" stop-color="#01a822"/><stop offset="1" stop-color="#00a820"/></linearGradient><linearGradient id="linear-gradient-2" x1="354.49" y1="697.38" x2="354.49" y2="550.91" gradientTransform="translate(-269.65 978.64) rotate(-90)" gradientUnits="userSpaceOnUse"><stop offset="0" stop-color="#00a820"/><stop offset="1" stop-color="#4fbfa5"/></linearGradient><linearGradient id="linear-gradient-3" x1="183.66" y1="573.39" x2="530.42" y2="573.39" gradientUnits="userSpaceOnUse"><stop offset="0" stop-color="#00386c"/><stop offset="0.7" stop-color="#007db0"/><stop offset="0.86" stop-color="#007eb2"/><stop offset="0.92" stop-color="#0081b9"/><stop offset="0.97" stop-color="#0087c5"/><stop offset="1" stop-color="#008fd5"/></linearGradient></defs><path class="cls-1" d="M122.26,141.91h121.8a0,0,0,0,1,0,0v16.17a24.67,24.67,0,0,1-24.67,24.67H97.6a0,0,0,0,1,0,0V166.57A24.67,24.67,0,0,1,122.26,141.91Z"/><path class="cls-2" d="M281.26,603.72h121.8a24.67,24.67,0,0,1,24.67,24.67v16.17a0,0,0,0,1,0,0H305.93a24.67,24.67,0,0,1-24.67-24.67V603.72A0,0,0,0,1,281.26,603.72Z" transform="translate(794.97 -192.17) rotate(90)"/><path class="cls-3" d="M273.64,685a236.76,236.76,0,0,1-40.85-28.79,172.23,172.23,0,0,1-17.71-18.11,150.44,150.44,0,0,1-14.87-20.87l-3.09-5.68-2.77-5.75a128,128,0,0,1-4.75-12.31,121.81,121.81,0,0,1-5.44-25.67c-1.65-17.52.71-35.87,8.4-52.54l3.12-6.13,3.63-5.87.23-.37.43-.59.46-.62.91-1.25,1.83-2.51c1.57-1.83,3.16-3.73,4.78-5.47a94.85,94.85,0,0,1,21.62-16.94,102.11,102.11,0,0,1,25.33-10.29,104,104,0,0,1,27.19-3.39c2.3,0,4.6.21,6.9.31l6.53.73c2.34.41,4.77.77,7,1.25s4.46,1,6.65,1.61a116.81,116.81,0,0,1,25.18,10.17,131,131,0,0,1,40.86,34.76l-15.92-1.16a115.62,115.62,0,0,1,20-15.09A110.16,110.16,0,0,1,402,484c15.81-5.12,32.85-7.16,49.55-4.51,2.09.21,4.15.76,6.21,1.16a56.28,56.28,0,0,1,6.14,1.55l3,.89.38.11.19.06.56.19.67.25,1.32.51,2.66,1,1.32.51,1.51.7c2,1,4.08,1.9,6,2.92l5.47,3.19A100.42,100.42,0,0,1,497.17,500a93,93,0,0,1,28.42,40.5A84.45,84.45,0,0,1,530.42,565l0,6.29v.79l0,.6,0,.35-.13,1.41-.3,2.84a88.4,88.4,0,0,1-2.55,12.33A97.2,97.2,0,0,1,517.83,612a115.8,115.8,0,0,1-13.93,19.29A163.94,163.94,0,0,1,468,660.69c-13,8.14-26.6,14.94-40.28,21.52,12.53-8.56,25.21-16.91,37-26.22S487.37,636.55,496,624.8a119.57,119.57,0,0,0,11.22-18.45,84.56,84.56,0,0,0,6.81-20,74.13,74.13,0,0,0,1.35-10l.09-2.83,0-1.42v-.53c0-.24,0,.23,0,.15v-.08l0-.63-.22-5.06a68.41,68.41,0,0,0-5-19.62A75,75,0,0,0,500,528.79a86.43,86.43,0,0,0-14.47-14.27,83.71,83.71,0,0,0-8.38-5.66l-4.44-2.37-4.28-1.9-1.07-.48-1.34-.46-2.68-.94-1.34-.47-.67-.24-.09,0,.31.11-.15,0-.3-.07-2.44-.63a40.67,40.67,0,0,0-4.89-1.1c-1.66-.26-3.28-.68-5-.79-13.34-1.71-27.15.17-40,4.54a97.44,97.44,0,0,0-34.56,21l-8.56,8.14-7.36-9.31a113.76,113.76,0,0,0-34.15-29.18,104.1,104.1,0,0,0-20.63-8.62c-1.77-.55-3.59-.92-5.39-1.4s-3.43-.66-5.15-1l-5.79-.76c-1.83-.1-3.65-.27-5.49-.33a86.32,86.32,0,0,0-42.72,9.9,76,76,0,0,0-17.82,12.88L217.58,509l-3.66,4.52-3.14,4.53L208,522.87A79.09,79.09,0,0,0,200.53,544a97.7,97.7,0,0,0-1.86,22.85,109.3,109.3,0,0,0,3.15,23.09c1,3.87,2.06,7.41,3.36,11.13l2.21,5.61,2.45,5.42a146.15,146.15,0,0,0,12.08,20.73,190.52,190.52,0,0,0,15.22,19C248.11,663.87,260.58,674.75,273.64,685Z" transform="translate(-183.66 -461.82)"/><path class="cls-4" d="M593.24,610.93V521.74H628.4c28,0,47.34,17.78,47.34,44.53,0,27-19.39,44.66-47.2,44.66Zm63.11-44.66c0-15.65-9.62-27.82-27.81-27.82H612.23v55.76H628.4C646.06,594.21,656.35,581.51,656.35,566.27Z" transform="translate(-183.66 -461.82)"/><path class="cls-4" d="M688.86,610.93V546.34h17V555c4.68-5.61,12.57-10.29,20.59-10.29v16.58a21.48,21.48,0,0,0-4.68-.4c-5.61,0-13.1,3.21-15.91,7.35v42.66Z" transform="translate(-183.66 -461.82)"/><path class="cls-4" d="M780.59,610.93v-8.16a30.69,30.69,0,0,1-22.73,9.76c-14.17,0-20.86-7.75-20.86-20.32V546.34h17v39.18c0,9,4.68,11.9,11.9,11.9a19,19,0,0,0,14.71-7.35V546.34h17v64.59Z" transform="translate(-183.66 -461.82)"/><path class="cls-4" d="M813.1,627.51l7.62-12.17c5.21,5.62,12.17,7.89,20.19,7.89s17.92-3.48,17.92-16.58v-6.29a25.08,25.08,0,0,1-20.06,10c-16,0-28.48-11.23-28.48-32.76,0-21.12,12.17-32.89,28.48-32.89a24.76,24.76,0,0,1,20.06,9.89v-8.29h17v60.31c0,24.47-19,30.49-34.9,30.49C829.94,637.14,821.25,634.6,813.1,627.51Zm45.73-39.45v-21c-2.94-4.15-9.09-7.22-14.58-7.22-9.76,0-16.45,6.68-16.45,17.78s6.69,17.79,16.45,17.79A19.22,19.22,0,0,0,858.83,588.06Z" transform="translate(-183.66 -461.82)"/><text class="cls-5" transform="translate(708.66 152.6)">Sa<tspan class="cls-6" x="142.75" y="0">f</tspan><tspan class="cls-7" x="185.5" y="0">e</tspan></text></svg>